<mxfile host="Electron" agent="Mozilla/5.0 (X11; Linux x86_64) AppleWebKit/537.36 (KHTML, like Gecko) draw.io/24.7.5 Chrome/126.0.6478.183 Electron/31.3.0 Safari/537.36" version="24.7.5">
  <diagram name="Page-1" id="u5qNZRLe7pSVD67M0vTA">
    <mxGraphModel dx="1364" dy="843" grid="1" gridSize="10" guides="1" tooltips="1" connect="1" arrows="1" fold="1" page="1" pageScale="1" pageWidth="850" pageHeight="1100" math="0" shadow="0">
      <root>
        <mxCell id="0" />
        <mxCell id="1" parent="0" />
        <mxCell id="FVjhk5phM0fLEEyvX9Ya-1" value="web" style="shape=cylinder3;whiteSpace=wrap;html=1;boundedLbl=1;backgroundOutline=1;size=15;" vertex="1" parent="1">
          <mxGeometry x="50" y="190" width="60" height="70" as="geometry" />
        </mxCell>
        <mxCell id="FVjhk5phM0fLEEyvX9Ya-2" value="curated" style="shape=cylinder3;whiteSpace=wrap;html=1;boundedLbl=1;backgroundOutline=1;size=15;" vertex="1" parent="1">
          <mxGeometry x="50" y="270" width="60" height="80" as="geometry" />
        </mxCell>
        <mxCell id="FVjhk5phM0fLEEyvX9Ya-3" value="Instruction" style="shape=cylinder3;whiteSpace=wrap;html=1;boundedLbl=1;backgroundOutline=1;size=15;" vertex="1" parent="1">
          <mxGeometry x="50" y="360" width="60" height="80" as="geometry" />
        </mxCell>
        <mxCell id="FVjhk5phM0fLEEyvX9Ya-8" style="edgeStyle=orthogonalEdgeStyle;rounded=0;orthogonalLoop=1;jettySize=auto;html=1;exitX=0;exitY=0.5;exitDx=0;exitDy=0;exitPerimeter=0;entryX=0;entryY=0.5;entryDx=0;entryDy=0;" edge="1" parent="1" source="FVjhk5phM0fLEEyvX9Ya-4" target="FVjhk5phM0fLEEyvX9Ya-6">
          <mxGeometry relative="1" as="geometry" />
        </mxCell>
        <mxCell id="FVjhk5phM0fLEEyvX9Ya-4" value="" style="strokeWidth=2;html=1;shape=mxgraph.flowchart.annotation_2;align=left;labelPosition=right;pointerEvents=1;rotation=-180;" vertex="1" parent="1">
          <mxGeometry x="160" y="200" width="50" height="240" as="geometry" />
        </mxCell>
        <mxCell id="FVjhk5phM0fLEEyvX9Ya-9" style="edgeStyle=orthogonalEdgeStyle;rounded=0;orthogonalLoop=1;jettySize=auto;html=1;exitX=1;exitY=0.5;exitDx=0;exitDy=0;entryX=0;entryY=0.5;entryDx=0;entryDy=0;" edge="1" parent="1" source="FVjhk5phM0fLEEyvX9Ya-6" target="FVjhk5phM0fLEEyvX9Ya-7">
          <mxGeometry relative="1" as="geometry" />
        </mxCell>
        <mxCell id="FVjhk5phM0fLEEyvX9Ya-6" value="Filtration" style="rounded=0;whiteSpace=wrap;html=1;" vertex="1" parent="1">
          <mxGeometry x="240" y="290" width="120" height="60" as="geometry" />
        </mxCell>
        <mxCell id="FVjhk5phM0fLEEyvX9Ya-7" value="Deduplication" style="rounded=0;whiteSpace=wrap;html=1;" vertex="1" parent="1">
          <mxGeometry x="410" y="290" width="120" height="60" as="geometry" />
        </mxCell>
        <mxCell id="FVjhk5phM0fLEEyvX9Ya-10" value="Datasets" style="text;html=1;align=center;verticalAlign=middle;whiteSpace=wrap;rounded=0;" vertex="1" parent="1">
          <mxGeometry x="50" y="160" width="60" height="30" as="geometry" />
        </mxCell>
        <mxCell id="FVjhk5phM0fLEEyvX9Ya-11" value="Diversification" style="rounded=1;whiteSpace=wrap;html=1;" vertex="1" parent="1">
          <mxGeometry x="30" y="450" width="120" height="30" as="geometry" />
        </mxCell>
        <mxCell id="FVjhk5phM0fLEEyvX9Ya-20" value="" style="line;strokeWidth=2;direction=south;html=1;" vertex="1" parent="1">
          <mxGeometry x="300" y="350" width="10" height="180" as="geometry" />
        </mxCell>
        <mxCell id="FVjhk5phM0fLEEyvX9Ya-12" value="Data Quality" style="rounded=0;whiteSpace=wrap;html=1;" vertex="1" parent="1">
          <mxGeometry x="260" y="370" width="120" height="40" as="geometry" />
        </mxCell>
        <mxCell id="FVjhk5phM0fLEEyvX9Ya-13" value="Depersonalization" style="rounded=0;whiteSpace=wrap;html=1;" vertex="1" parent="1">
          <mxGeometry x="260" y="430" width="120" height="40" as="geometry" />
        </mxCell>
        <mxCell id="FVjhk5phM0fLEEyvX9Ya-15" value="Debias" style="rounded=0;whiteSpace=wrap;html=1;" vertex="1" parent="1">
          <mxGeometry x="260" y="490" width="120" height="40" as="geometry" />
        </mxCell>
        <mxCell id="FVjhk5phM0fLEEyvX9Ya-22" value="cleaned up text" style="strokeWidth=2;html=1;shape=mxgraph.flowchart.multi-document;whiteSpace=wrap;" vertex="1" parent="1">
          <mxGeometry x="580" y="290" width="120" height="60" as="geometry" />
        </mxCell>
        <mxCell id="FVjhk5phM0fLEEyvX9Ya-23" style="edgeStyle=orthogonalEdgeStyle;rounded=0;orthogonalLoop=1;jettySize=auto;html=1;exitX=1;exitY=0.5;exitDx=0;exitDy=0;entryX=0;entryY=0.5;entryDx=0;entryDy=0;entryPerimeter=0;" edge="1" parent="1" source="FVjhk5phM0fLEEyvX9Ya-7" target="FVjhk5phM0fLEEyvX9Ya-22">
          <mxGeometry relative="1" as="geometry" />
        </mxCell>
        <mxCell id="FVjhk5phM0fLEEyvX9Ya-37" style="edgeStyle=orthogonalEdgeStyle;rounded=0;orthogonalLoop=1;jettySize=auto;html=1;exitX=0.5;exitY=1;exitDx=0;exitDy=0;entryX=0.5;entryY=0;entryDx=0;entryDy=0;" edge="1" parent="1" source="FVjhk5phM0fLEEyvX9Ya-24" target="FVjhk5phM0fLEEyvX9Ya-25">
          <mxGeometry relative="1" as="geometry" />
        </mxCell>
        <mxCell id="FVjhk5phM0fLEEyvX9Ya-24" value="Normalization" style="rounded=1;whiteSpace=wrap;html=1;" vertex="1" parent="1">
          <mxGeometry x="570" y="370" width="120" height="40" as="geometry" />
        </mxCell>
        <mxCell id="FVjhk5phM0fLEEyvX9Ya-25" value="Pretokenization" style="rounded=1;whiteSpace=wrap;html=1;" vertex="1" parent="1">
          <mxGeometry x="570" y="440" width="120" height="50" as="geometry" />
        </mxCell>
        <mxCell id="FVjhk5phM0fLEEyvX9Ya-26" value="Vocabulary Building" style="rounded=1;whiteSpace=wrap;html=1;" vertex="1" parent="1">
          <mxGeometry x="420" y="520" width="120" height="60" as="geometry" />
        </mxCell>
        <mxCell id="FVjhk5phM0fLEEyvX9Ya-40" style="edgeStyle=orthogonalEdgeStyle;rounded=0;orthogonalLoop=1;jettySize=auto;html=1;entryX=0;entryY=0.5;entryDx=0;entryDy=0;" edge="1" parent="1" source="FVjhk5phM0fLEEyvX9Ya-27" target="FVjhk5phM0fLEEyvX9Ya-33">
          <mxGeometry relative="1" as="geometry" />
        </mxCell>
        <mxCell id="FVjhk5phM0fLEEyvX9Ya-27" value="Token Id&lt;div&gt;Vocabulary&lt;/div&gt;" style="shape=cylinder3;whiteSpace=wrap;html=1;boundedLbl=1;backgroundOutline=1;size=15;" vertex="1" parent="1">
          <mxGeometry x="445" y="610" width="85" height="80" as="geometry" />
        </mxCell>
        <mxCell id="FVjhk5phM0fLEEyvX9Ya-28" style="edgeStyle=orthogonalEdgeStyle;rounded=0;orthogonalLoop=1;jettySize=auto;html=1;exitX=0.5;exitY=1;exitDx=0;exitDy=0;entryX=0.5;entryY=0;entryDx=0;entryDy=0;entryPerimeter=0;" edge="1" parent="1" source="FVjhk5phM0fLEEyvX9Ya-26" target="FVjhk5phM0fLEEyvX9Ya-27">
          <mxGeometry relative="1" as="geometry" />
        </mxCell>
        <mxCell id="FVjhk5phM0fLEEyvX9Ya-30" style="edgeStyle=orthogonalEdgeStyle;rounded=0;orthogonalLoop=1;jettySize=auto;html=1;exitX=0;exitY=0.5;exitDx=0;exitDy=0;exitPerimeter=0;entryX=1;entryY=0.5;entryDx=0;entryDy=0;" edge="1" parent="1" source="FVjhk5phM0fLEEyvX9Ya-29" target="FVjhk5phM0fLEEyvX9Ya-26">
          <mxGeometry relative="1" as="geometry" />
        </mxCell>
        <mxCell id="FVjhk5phM0fLEEyvX9Ya-39" style="edgeStyle=orthogonalEdgeStyle;rounded=0;orthogonalLoop=1;jettySize=auto;html=1;exitX=0.5;exitY=0.88;exitDx=0;exitDy=0;exitPerimeter=0;entryX=0.5;entryY=0;entryDx=0;entryDy=0;" edge="1" parent="1" source="FVjhk5phM0fLEEyvX9Ya-29" target="FVjhk5phM0fLEEyvX9Ya-33">
          <mxGeometry relative="1" as="geometry" />
        </mxCell>
        <mxCell id="FVjhk5phM0fLEEyvX9Ya-29" value="Tokenized Text" style="strokeWidth=2;html=1;shape=mxgraph.flowchart.multi-document;whiteSpace=wrap;" vertex="1" parent="1">
          <mxGeometry x="570" y="520" width="120" height="60" as="geometry" />
        </mxCell>
        <mxCell id="FVjhk5phM0fLEEyvX9Ya-33" value="Encoding" style="rounded=1;whiteSpace=wrap;html=1;" vertex="1" parent="1">
          <mxGeometry x="570" y="625" width="120" height="50" as="geometry" />
        </mxCell>
        <mxCell id="FVjhk5phM0fLEEyvX9Ya-36" style="edgeStyle=orthogonalEdgeStyle;rounded=0;orthogonalLoop=1;jettySize=auto;html=1;exitX=0.5;exitY=0.88;exitDx=0;exitDy=0;exitPerimeter=0;entryX=0.6;entryY=0.1;entryDx=0;entryDy=0;entryPerimeter=0;" edge="1" parent="1" source="FVjhk5phM0fLEEyvX9Ya-22" target="FVjhk5phM0fLEEyvX9Ya-24">
          <mxGeometry relative="1" as="geometry" />
        </mxCell>
        <mxCell id="FVjhk5phM0fLEEyvX9Ya-38" style="edgeStyle=orthogonalEdgeStyle;rounded=0;orthogonalLoop=1;jettySize=auto;html=1;exitX=0.5;exitY=1;exitDx=0;exitDy=0;entryX=0.5;entryY=0;entryDx=0;entryDy=0;entryPerimeter=0;" edge="1" parent="1" source="FVjhk5phM0fLEEyvX9Ya-25" target="FVjhk5phM0fLEEyvX9Ya-29">
          <mxGeometry relative="1" as="geometry" />
        </mxCell>
      </root>
    </mxGraphModel>
  </diagram>
</mxfile>
